<svg width="14" height="12" viewBox="0 0 14 12" fill="none" xmlns="http://www.w3.org/2000/svg">
<path d="M1.00004 0H13C13.1769 0 13.3464 0.0702379 13.4714 0.195262C13.5965 0.320286 13.6667 0.489856 13.6667 0.666667V11.3333C13.6667 11.5101 13.5965 11.6797 13.4714 11.8047C13.3464 11.9298 13.1769 12 13 12H1.00004C0.82323 12 0.65366 11.9298 0.528636 11.8047C0.403612 11.6797 0.333374 11.5101 0.333374 11.3333V0.666667C0.333374 0.489856 0.403612 0.320286 0.528636 0.195262C0.65366 0.0702379 0.82323 0 1.00004 0ZM7.04004 5.78867L2.76537 2.15867L1.90204 3.17467L7.04871 7.54467L12.1027 3.17133L11.2307 2.16267L7.04071 5.78867H7.04004Z" fill="white" fill-opacity="0.7"/>
</svg>
