<svg width="18" height="14" viewBox="0 0 18 14" fill="none" xmlns="http://www.w3.org/2000/svg">
<path d="M17.4683 1.71327C16.8321 1.99468 16.1575 2.1795 15.4667 2.26161C16.1948 1.82613 16.7398 1.14078 17 0.333272C16.3167 0.739939 15.5675 1.02494 14.7867 1.17911C14.2622 0.617921 13.567 0.245741 12.8091 0.120426C12.0513 -0.00488924 11.2733 0.123681 10.5961 0.48615C9.91883 0.848618 9.38032 1.42468 9.06426 2.12477C8.7482 2.82486 8.67229 3.60976 8.84833 4.35744C7.46259 4.28798 6.10694 3.92788 4.8694 3.30049C3.63187 2.67311 2.5401 1.79248 1.665 0.715772C1.35524 1.24781 1.19246 1.85263 1.19333 2.46827C1.19333 3.67661 1.80833 4.74411 2.74333 5.36911C2.19001 5.35169 1.64886 5.20226 1.165 4.93327V4.9766C1.16517 5.78136 1.44364 6.56129 1.9532 7.18415C2.46277 7.80702 3.17207 8.2345 3.96083 8.39411C3.44718 8.5333 2.90859 8.55382 2.38583 8.45411C2.60822 9.1468 3.04167 9.7526 3.62549 10.1867C4.20931 10.6208 4.91427 10.8614 5.64166 10.8749C4.91873 11.4427 4.09098 11.8624 3.20573 12.1101C2.32048 12.3577 1.3951 12.4285 0.482498 12.3183C2.07558 13.3428 3.93008 13.8867 5.82416 13.8849C12.235 13.8849 15.7408 8.57411 15.7408 3.96827C15.7408 3.81827 15.7367 3.66661 15.73 3.51827C16.4124 3.02508 17.0013 2.41412 17.4692 1.71411L17.4683 1.71327Z" fill="#767676"/>
</svg>
