<svg width="18" height="18" viewBox="0 0 18 18" fill="none" xmlns="http://www.w3.org/2000/svg">
<path d="M0.66997 17.3332L1.79664 13.1932C1.05425 11.9205 0.664217 10.4732 0.666637 8.99984C0.666637 4.39734 4.39747 0.666504 8.99997 0.666504C13.6025 0.666504 17.3333 4.39734 17.3333 8.99984C17.3333 13.6023 13.6025 17.3332 8.99997 17.3332C7.52729 17.3355 6.08052 16.9458 4.8083 16.204L0.66997 17.3332ZM5.99247 5.08984C5.88486 5.09652 5.7797 5.12486 5.6833 5.17317C5.59291 5.22436 5.51038 5.28836 5.4383 5.36317C5.3383 5.45734 5.28164 5.539 5.2208 5.61817C4.91281 6.019 4.74715 6.51102 4.74997 7.0165C4.75164 7.42484 4.8583 7.82234 5.02497 8.194C5.3658 8.94567 5.92664 9.7415 6.66747 10.479C6.8458 10.6565 7.01997 10.8348 7.20747 11.0007C8.12696 11.8102 9.22268 12.394 10.4075 12.7057L10.8816 12.7782C11.0358 12.7865 11.19 12.7748 11.345 12.7673C11.5877 12.7548 11.8246 12.6891 12.0391 12.5748C12.1483 12.5186 12.2548 12.4574 12.3583 12.3915C12.3583 12.3915 12.3941 12.3682 12.4625 12.3165C12.575 12.2332 12.6441 12.174 12.7375 12.0765C12.8066 12.0048 12.8666 11.9207 12.9125 11.8248C12.9775 11.689 13.0425 11.4298 13.0691 11.214C13.0891 11.049 13.0833 10.959 13.0808 10.9032C13.0775 10.814 13.0033 10.7215 12.9225 10.6823L12.4375 10.4648C12.4375 10.4648 11.7125 10.149 11.27 9.94734C11.2233 9.927 11.1733 9.91542 11.1225 9.91317C11.0655 9.90732 11.0078 9.91373 10.9535 9.93198C10.8992 9.95024 10.8494 9.97991 10.8075 10.019V10.0173C10.8033 10.0173 10.7475 10.0648 10.145 10.7948C10.1104 10.8413 10.0628 10.8764 10.0081 10.8957C9.95352 10.915 9.8944 10.9176 9.8383 10.9032C9.78401 10.8887 9.73081 10.8703 9.67914 10.8482C9.5758 10.8048 9.53997 10.7882 9.46914 10.7573L9.46497 10.7557C8.98823 10.5475 8.54682 10.2664 8.15664 9.92234C8.05164 9.83067 7.95414 9.73067 7.85414 9.634C7.52629 9.32003 7.24057 8.96485 7.00414 8.57734L6.95497 8.49817C6.91966 8.44497 6.8911 8.38759 6.86997 8.32734C6.8383 8.20484 6.9208 8.1065 6.9208 8.1065C6.9208 8.1065 7.1233 7.88484 7.21747 7.76484C7.29588 7.6651 7.36903 7.56135 7.43664 7.454C7.53497 7.29567 7.5658 7.13317 7.51414 7.00734C7.2808 6.43734 7.03914 5.86984 6.7908 5.3065C6.74164 5.19484 6.5958 5.11484 6.4633 5.099C6.4183 5.094 6.3733 5.089 6.3283 5.08567C6.21639 5.08011 6.10425 5.08122 5.99247 5.089V5.08984Z" fill="#767676"/>
</svg>
