<svg width="14" height="14" viewBox="0 0 14 14" fill="none" xmlns="http://www.w3.org/2000/svg">
<path d="M6.99992 13.6667C3.31792 13.6667 0.333252 10.682 0.333252 7C0.333252 3.318 3.31792 0.333333 6.99992 0.333333C10.6819 0.333333 13.6666 3.318 13.6666 7C13.6666 10.682 10.6819 13.6667 6.99992 13.6667ZM6.33325 9V10.3333H7.66658V9H6.33325ZM7.66658 7.90333C8.20236 7.74185 8.66232 7.3933 8.96269 6.92116C9.26306 6.44902 9.38385 5.8847 9.30307 5.33098C9.2223 4.77725 8.94532 4.27096 8.52259 3.9043C8.09986 3.53765 7.5595 3.33502 6.99992 3.33333C6.46049 3.33329 5.93769 3.5201 5.52045 3.86199C5.1032 4.20389 4.81726 4.67975 4.71125 5.20867L6.01925 5.47067C6.05637 5.28495 6.14546 5.1136 6.27616 4.97654C6.40686 4.83949 6.57379 4.74236 6.75753 4.69647C6.94128 4.65058 7.13427 4.65781 7.31407 4.71731C7.49386 4.77682 7.65306 4.88616 7.77314 5.03261C7.89322 5.17906 7.96925 5.35659 7.99237 5.54456C8.0155 5.73253 7.98477 5.9232 7.90377 6.09439C7.82276 6.26558 7.69481 6.41024 7.5348 6.51155C7.37479 6.61286 7.1893 6.66665 6.99992 6.66667C6.82311 6.66667 6.65354 6.7369 6.52851 6.86193C6.40349 6.98695 6.33325 7.15652 6.33325 7.33333V8.33333H7.66658V7.90333Z" fill="white" fill-opacity="0.7"/>
</svg>
