<svg width="14" height="14" viewBox="0 0 14 14" fill="none" xmlns="http://www.w3.org/2000/svg">
<path d="M7.00004 0.333333C8.81137 0.333333 9.03737 0.34 9.74804 0.373333C10.458 0.406666 10.9414 0.518 11.3667 0.683333C11.8067 0.852666 12.1774 1.082 12.548 1.452C12.887 1.78526 13.1493 2.18839 13.3167 2.63333C13.4814 3.058 13.5934 3.542 13.6267 4.252C13.658 4.96267 13.6667 5.18867 13.6667 7C13.6667 8.81133 13.66 9.03733 13.6267 9.748C13.5934 10.458 13.4814 10.9413 13.3167 11.3667C13.1498 11.8119 12.8875 12.2151 12.548 12.548C12.2147 12.8869 11.8116 13.1492 11.3667 13.3167C10.942 13.4813 10.458 13.5933 9.74804 13.6267C9.03737 13.658 8.81137 13.6667 7.00004 13.6667C5.18871 13.6667 4.96271 13.66 4.25204 13.6267C3.54204 13.5933 3.05871 13.4813 2.63337 13.3167C2.18826 13.1496 1.78506 12.8873 1.45204 12.548C1.11298 12.2148 0.850662 11.8116 0.683374 11.3667C0.518041 10.942 0.406707 10.458 0.373374 9.748C0.342041 9.03733 0.333374 8.81133 0.333374 7C0.333374 5.18867 0.340041 4.96267 0.373374 4.252C0.406707 3.54133 0.518041 3.05867 0.683374 2.63333C0.850198 2.18812 1.11258 1.78488 1.45204 1.452C1.78515 1.11282 2.18833 0.850486 2.63337 0.683333C3.05871 0.518 3.54137 0.406666 4.25204 0.373333C4.96271 0.342 5.18871 0.333333 7.00004 0.333333ZM7.00004 3.66667C6.11599 3.66667 5.26814 4.01786 4.64302 4.64298C4.0179 5.2681 3.66671 6.11594 3.66671 7C3.66671 7.88405 4.0179 8.7319 4.64302 9.35702C5.26814 9.98214 6.11599 10.3333 7.00004 10.3333C7.8841 10.3333 8.73194 9.98214 9.35706 9.35702C9.98218 8.7319 10.3334 7.88405 10.3334 7C10.3334 6.11594 9.98218 5.2681 9.35706 4.64298C8.73194 4.01786 7.8841 3.66667 7.00004 3.66667ZM11.3334 3.5C11.3334 3.27899 11.2456 3.06702 11.0893 2.91074C10.933 2.75446 10.7211 2.66667 10.5 2.66667C10.279 2.66667 10.0671 2.75446 9.91078 2.91074C9.7545 3.06702 9.66671 3.27899 9.66671 3.5C9.66671 3.72101 9.7545 3.93298 9.91078 4.08926C10.0671 4.24554 10.279 4.33333 10.5 4.33333C10.7211 4.33333 10.933 4.24554 11.0893 4.08926C11.2456 3.93298 11.3334 3.72101 11.3334 3.5ZM7.00004 5C7.53047 5 8.03918 5.21071 8.41426 5.58579C8.78933 5.96086 9.00004 6.46957 9.00004 7C9.00004 7.53043 8.78933 8.03914 8.41426 8.41421C8.03918 8.78929 7.53047 9 7.00004 9C6.46961 9 5.9609 8.78929 5.58583 8.41421C5.21075 8.03914 5.00004 7.53043 5.00004 7C5.00004 6.46957 5.21075 5.96086 5.58583 5.58579C5.9609 5.21071 6.46961 5 7.00004 5Z" fill="white" fill-opacity="0.7"/>
</svg>
