<svg width="18" height="18" viewBox="0 0 18 18" fill="none" xmlns="http://www.w3.org/2000/svg">
<path d="M8.94832 17.3333C4.34582 17.3333 0.61499 13.6025 0.61499 9C0.61499 4.3975 4.34582 0.666668 8.94832 0.666668C13.5508 0.666668 17.2817 4.3975 17.2817 9C17.2817 13.6025 13.5508 17.3333 8.94832 17.3333ZM4.79249 14.2133C5.97211 15.1564 7.43806 15.6691 8.94832 15.6667C10.5253 15.6689 12.0516 15.1101 13.2542 14.09C12.7114 13.5331 12.0625 13.0907 11.3459 12.789C10.6292 12.4873 9.85926 12.3323 9.08166 12.3333C8.27548 12.3324 7.47791 12.499 6.73954 12.8227C6.00118 13.1463 5.33814 13.6199 4.79249 14.2133ZM3.62832 13.0167C4.3287 12.2734 5.17388 11.6814 6.11177 11.2773C7.04966 10.8731 8.06039 10.6653 9.08166 10.6667C10.0664 10.6654 11.0416 10.8586 11.9514 11.2353C12.8613 11.612 13.6877 12.1647 14.3833 12.8617C15.0967 11.8576 15.518 10.6755 15.6005 9.4466C15.6829 8.21766 15.4233 6.98991 14.8504 5.89955C14.2775 4.80919 13.4138 3.89885 12.355 3.26954C11.2962 2.64022 10.0837 2.31653 8.85216 2.33438C7.62059 2.35222 6.41804 2.71091 5.37792 3.37063C4.33781 4.03036 3.50079 4.96534 2.95973 6.07184C2.41868 7.17833 2.19474 8.41309 2.31275 9.63913C2.43077 10.8652 2.88613 12.0345 3.62832 13.0175V13.0167ZM8.94832 9.83333C8.06427 9.83333 7.21642 9.48215 6.5913 8.85702C5.96618 8.2319 5.61499 7.38406 5.61499 6.5C5.61499 5.61595 5.96618 4.7681 6.5913 4.14298C7.21642 3.51786 8.06427 3.16667 8.94832 3.16667C9.83238 3.16667 10.6802 3.51786 11.3053 4.14298C11.9305 4.7681 12.2817 5.61595 12.2817 6.5C12.2817 7.38406 11.9305 8.2319 11.3053 8.85702C10.6802 9.48215 9.83238 9.83333 8.94832 9.83333ZM8.94832 8.16667C9.39035 8.16667 9.81427 7.99107 10.1268 7.67851C10.4394 7.36595 10.615 6.94203 10.615 6.5C10.615 6.05797 10.4394 5.63405 10.1268 5.32149C9.81427 5.00893 9.39035 4.83333 8.94832 4.83333C8.5063 4.83333 8.08237 5.00893 7.76981 5.32149C7.45725 5.63405 7.28166 6.05797 7.28166 6.5C7.28166 6.94203 7.45725 7.36595 7.76981 7.67851C8.08237 7.99107 8.5063 8.16667 8.94832 8.16667Z" fill="#1A1A1A"/>
</svg>
