<svg width="18" height="18" viewBox="0 0 18 18" fill="none" xmlns="http://www.w3.org/2000/svg">
<path d="M13.9742 12.8475L17.5433 16.4158L16.3642 17.595L12.7958 14.0258C11.4681 15.0902 9.81666 15.6691 8.11499 15.6667C3.97499 15.6667 0.61499 12.3067 0.61499 8.16667C0.61499 4.02667 3.97499 0.666668 8.11499 0.666668C12.255 0.666668 15.615 4.02667 15.615 8.16667C15.6174 9.86834 15.0385 11.5198 13.9742 12.8475ZM12.3025 12.2292C13.3601 11.1416 13.9507 9.68369 13.9483 8.16667C13.9483 4.94333 11.3375 2.33333 8.11499 2.33333C4.89166 2.33333 2.28166 4.94333 2.28166 8.16667C2.28166 11.3892 4.89166 14 8.11499 14C9.63202 14.0024 11.0899 13.4118 12.1775 12.3542L12.3025 12.2292Z" fill="#1A1A1A"/>
</svg>
