<svg width="14" height="12" viewBox="0 0 14 12" fill="none" xmlns="http://www.w3.org/2000/svg">
<path d="M13.7747 1.77067C13.2657 1.9958 12.726 2.14365 12.1734 2.20933C12.7559 1.86096 13.1918 1.31268 13.4 0.666666C12.8534 0.992 12.254 1.22 11.6294 1.34333C11.2098 0.894386 10.6536 0.596642 10.0473 0.49639C9.44107 0.396137 8.81866 0.498994 8.27688 0.788968C7.7351 1.07894 7.30429 1.53979 7.05144 2.09986C6.7986 2.65993 6.73787 3.28785 6.8787 3.886C5.77011 3.83044 4.68559 3.54235 3.69556 3.04044C2.70553 2.53854 1.83212 1.83403 1.13204 0.972667C0.884228 1.3983 0.754005 1.88215 0.754702 2.37467C0.754702 3.34133 1.2467 4.19533 1.9947 4.69533C1.55204 4.6814 1.11912 4.56185 0.732035 4.34667V4.38133C0.732169 5.02513 0.954948 5.64908 1.3626 6.14737C1.77025 6.64567 2.33769 6.98765 2.9687 7.11533C2.55778 7.22669 2.12691 7.24311 1.7087 7.16333C1.88661 7.71749 2.23337 8.20213 2.70043 8.54941C3.16749 8.89668 3.73145 9.0892 4.31337 9.1C3.73502 9.55422 3.07282 9.88999 2.36462 10.0881C1.65642 10.2862 0.91612 10.3428 0.186035 10.2547C1.4605 11.0743 2.9441 11.5094 4.45937 11.508C9.58803 11.508 12.3927 7.25933 12.3927 3.57467C12.3927 3.45467 12.3894 3.33333 12.384 3.21467C12.9299 2.82011 13.4011 2.33135 13.7754 1.77133L13.7747 1.77067Z" fill="white" fill-opacity="0.7"/>
</svg>
