<svg width="14" height="14" viewBox="0 0 14 14" fill="none" xmlns="http://www.w3.org/2000/svg">
<path d="M0.33605 13.6667L1.23738 10.3547C0.643475 9.33657 0.331447 8.17866 0.333383 7C0.333383 3.318 3.31805 0.333333 7.00005 0.333333C10.682 0.333333 13.6667 3.318 13.6667 7C13.6667 10.682 10.682 13.6667 7.00005 13.6667C5.8219 13.6686 4.66449 13.3568 3.64672 12.7633L0.33605 13.6667ZM4.59405 3.872C4.50796 3.87735 4.42383 3.90002 4.34672 3.93867C4.2744 3.97962 4.20838 4.03082 4.15072 4.09067C4.07072 4.166 4.02538 4.23133 3.97672 4.29467C3.73032 4.61533 3.59779 5.00895 3.60005 5.41333C3.60138 5.74 3.68672 6.058 3.82005 6.35533C4.09272 6.95667 4.54138 7.59333 5.13405 8.18333C5.27672 8.32533 5.41605 8.468 5.56605 8.60067C6.30164 9.24831 7.17822 9.71536 8.12605 9.96467L8.50538 10.0227C8.62872 10.0293 8.75205 10.02 8.87605 10.014C9.07021 10.004 9.25979 9.9514 9.43138 9.86C9.51869 9.81503 9.60389 9.76609 9.68672 9.71333C9.68672 9.71333 9.71538 9.69467 9.77005 9.65333C9.86005 9.58667 9.91538 9.53933 9.99005 9.46133C10.0454 9.404 10.0934 9.33667 10.13 9.26C10.182 9.15133 10.234 8.944 10.2554 8.77133C10.2714 8.63933 10.2667 8.56733 10.2647 8.52267C10.262 8.45133 10.2027 8.37733 10.1381 8.346L9.75005 8.172C9.75005 8.172 9.17005 7.91933 8.81605 7.758C8.77873 7.74173 8.73873 7.73246 8.69805 7.73067C8.65244 7.72598 8.60635 7.73111 8.56288 7.74572C8.51942 7.76032 8.47958 7.78406 8.44605 7.81533V7.814C8.44272 7.814 8.39805 7.852 7.91605 8.436C7.88838 8.47317 7.85028 8.50127 7.80658 8.5167C7.76289 8.53214 7.71559 8.53421 7.67072 8.52267C7.62728 8.51105 7.58473 8.49635 7.54338 8.47867C7.46072 8.444 7.43205 8.43067 7.37538 8.406L7.37205 8.40467C6.99066 8.23815 6.63753 8.01323 6.32538 7.738C6.24138 7.66467 6.16338 7.58467 6.08338 7.50733C5.8211 7.25616 5.59253 6.97201 5.40338 6.662L5.36405 6.59867C5.3358 6.55611 5.31296 6.5102 5.29605 6.462C5.27072 6.364 5.33672 6.28533 5.33672 6.28533C5.33672 6.28533 5.49872 6.108 5.57405 6.012C5.63678 5.93221 5.6953 5.84921 5.74938 5.76333C5.82805 5.63667 5.85272 5.50667 5.81138 5.406C5.62472 4.95 5.43138 4.496 5.23272 4.04533C5.19338 3.956 5.07672 3.892 4.97072 3.87933C4.93472 3.87533 4.89872 3.87133 4.86272 3.86867C4.77319 3.86422 4.68347 3.86511 4.59405 3.87133V3.872Z" fill="white" fill-opacity="0.7"/>
</svg>
