<svg width="18" height="18" viewBox="0 0 18 18" fill="none" xmlns="http://www.w3.org/2000/svg">
<path d="M0.66997 17.3333L1.79664 13.1933C1.05425 11.9207 0.664217 10.4733 0.666637 8.99999C0.666637 4.39749 4.39747 0.666656 8.99997 0.666656C13.6025 0.666656 17.3333 4.39749 17.3333 8.99999C17.3333 13.6025 13.6025 17.3333 8.99997 17.3333C7.52729 17.3357 6.08052 16.946 4.8083 16.2042L0.66997 17.3333ZM5.99247 5.08999C5.88486 5.09667 5.7797 5.12502 5.6833 5.17332C5.59291 5.22451 5.51038 5.28851 5.4383 5.36332C5.3383 5.45749 5.28164 5.53916 5.2208 5.61832C4.91281 6.01915 4.74715 6.51117 4.74997 7.01666C4.75164 7.42499 4.8583 7.82249 5.02497 8.19416C5.3658 8.94582 5.92664 9.74166 6.66747 10.4792C6.8458 10.6567 7.01997 10.835 7.20747 11.0008C8.12696 11.8104 9.22268 12.3942 10.4075 12.7058L10.8816 12.7783C11.0358 12.7867 11.19 12.775 11.345 12.7675C11.5877 12.755 11.8246 12.6892 12.0391 12.575C12.1483 12.5188 12.2548 12.4576 12.3583 12.3917C12.3583 12.3917 12.3941 12.3683 12.4625 12.3167C12.575 12.2333 12.6441 12.1742 12.7375 12.0767C12.8066 12.005 12.8666 11.9208 12.9125 11.825C12.9775 11.6892 13.0425 11.43 13.0691 11.2142C13.0891 11.0492 13.0833 10.9592 13.0808 10.9033C13.0775 10.8142 13.0033 10.7217 12.9225 10.6825L12.4375 10.465C12.4375 10.465 11.7125 10.1492 11.27 9.94749C11.2233 9.92715 11.1733 9.91557 11.1225 9.91332C11.0655 9.90747 11.0078 9.91388 10.9535 9.93214C10.8992 9.95039 10.8494 9.98006 10.8075 10.0192V10.0175C10.8033 10.0175 10.7475 10.065 10.145 10.795C10.1104 10.8415 10.0628 10.8766 10.0081 10.8959C9.95352 10.9152 9.8944 10.9178 9.8383 10.9033C9.78401 10.8888 9.73081 10.8704 9.67914 10.8483C9.5758 10.805 9.53997 10.7883 9.46914 10.7575L9.46497 10.7558C8.98823 10.5477 8.54682 10.2665 8.15664 9.92249C8.05164 9.83082 7.95414 9.73082 7.85414 9.63416C7.52629 9.32019 7.24057 8.965 7.00414 8.57749L6.95497 8.49832C6.91966 8.44513 6.8911 8.38774 6.86997 8.32749C6.8383 8.20499 6.9208 8.10666 6.9208 8.10666C6.9208 8.10666 7.1233 7.88499 7.21747 7.76499C7.29588 7.66526 7.36903 7.56151 7.43664 7.45416C7.53497 7.29582 7.5658 7.13332 7.51414 7.00749C7.2808 6.43749 7.03914 5.86999 6.7908 5.30666C6.74164 5.19499 6.5958 5.11499 6.4633 5.09916C6.4183 5.09416 6.3733 5.08916 6.3283 5.08582C6.21639 5.08026 6.10425 5.08138 5.99247 5.08916V5.08999Z" fill="#1A1A1A"/>
</svg>
