<svg width="14" height="12" viewBox="0 0 14 12" fill="none" xmlns="http://www.w3.org/2000/svg">
<path d="M13.362 2.332C13.6667 3.52 13.6667 6 13.6667 6C13.6667 6 13.6667 8.48 13.362 9.668C13.1927 10.3247 12.6974 10.8413 12.07 11.016C10.9307 11.3333 7.00004 11.3333 7.00004 11.3333C7.00004 11.3333 3.07137 11.3333 1.93004 11.016C1.30004 10.8387 0.805374 10.3227 0.638041 9.668C0.333374 8.48 0.333374 6 0.333374 6C0.333374 6 0.333374 3.52 0.638041 2.332C0.807374 1.67533 1.30271 1.15867 1.93004 0.983999C3.07137 0.666666 7.00004 0.666666 7.00004 0.666666C7.00004 0.666666 10.9307 0.666666 12.07 0.983999C12.7 1.16133 13.1947 1.67733 13.362 2.332ZM5.66671 8.33333L9.66671 6L5.66671 3.66667V8.33333Z" fill="white" fill-opacity="0.7"/>
</svg>
